<?xml version="1.0" encoding="UTF-8"?> <svg xmlns="http://www.w3.org/2000/svg" id="Layer_1" data-name="Layer 1" viewBox="0 0 360 323.85"><defs><style>.cls-1{fill:#ffc907;}</style></defs><title>Artboard 1</title><path d="M97.94,320.23H84.67l-11-37.2h-.23l-11,37.2H49.08l-15.79-55H47.75l8.8,36.58h.23l9.9-36.58h14l10,36.58h.23l9-36.58h14Z"></path><path d="M157.25,320.23l-4.32-10.79H131.41l-4.09,10.79H112.71l23.33-55h13l23.1,55Zm-14.92-40.3-7.07,18.87h14Z"></path><path d="M195.9,276.59v43.64H182.47V276.59H166.76V265.25h44.85v11.34Z"></path><path d="M255.21,319.26a30.09,30.09,0,0,1-12.49,2.45,32.85,32.85,0,0,1-11.9-2.1,28.08,28.08,0,0,1-9.47-5.94,27.5,27.5,0,0,1-6.28-9.2,31.86,31.86,0,0,1,0-23.77,26.57,26.57,0,0,1,6.4-9.12,28.51,28.51,0,0,1,9.58-5.79,34.31,34.31,0,0,1,11.86-2,33.93,33.93,0,0,1,11.59,2.06,22.2,22.2,0,0,1,9.23,6l-9.11,9a11.31,11.31,0,0,0-4.95-3.81,16.54,16.54,0,0,0-6.28-1.24,16.12,16.12,0,0,0-6.48,1.28,15.21,15.21,0,0,0-5.07,3.53,16,16,0,0,0-3.3,5.32,18.53,18.53,0,0,0-1.18,6.72,19,19,0,0,0,1.18,6.84,15.81,15.81,0,0,0,3.26,5.32,14.77,14.77,0,0,0,5,3.45,16,16,0,0,0,6.36,1.24,14.89,14.89,0,0,0,7-1.55,13.39,13.39,0,0,0,4.79-4l9.35,8.7A26.4,26.4,0,0,1,255.21,319.26Z"></path><path d="M328,292.51a30.33,30.33,0,0,1-2.28,11.92,27.19,27.19,0,0,1-6.32,9.24,28.35,28.35,0,0,1-9.62,5.94,34.11,34.11,0,0,1-12.1,2.1,33.73,33.73,0,0,1-12.06-2.1,28.27,28.27,0,0,1-9.58-5.94,27.07,27.07,0,0,1-6.33-9.24,30.33,30.33,0,0,1-2.28-11.92,30,30,0,0,1,2.28-11.92,26,26,0,0,1,6.33-9,28.16,28.16,0,0,1,9.58-5.75,35.08,35.08,0,0,1,12.06-2,35.48,35.48,0,0,1,12.1,2,28.24,28.24,0,0,1,9.62,5.75,26.13,26.13,0,0,1,6.32,9A30,30,0,0,1,328,292.51Zm-14.38,0a18.8,18.8,0,0,0-1.17-6.68,16,16,0,0,0-3.26-5.32,15.15,15.15,0,0,0-5-3.5,16.19,16.19,0,0,0-6.48-1.28,15.82,15.82,0,0,0-6.44,1.28,15.57,15.57,0,0,0-5,3.5,15,15,0,0,0-3.26,5.32,20.37,20.37,0,0,0,0,13.55,16.08,16.08,0,0,0,3.26,5.4,14.84,14.84,0,0,0,5,3.53,16.84,16.84,0,0,0,12.88,0,15.31,15.31,0,0,0,5-3.53,16,16,0,0,0,3.3-5.4A19.58,19.58,0,0,0,313.65,292.51Z"></path><polygon points="180.15 3.96 187.33 3.96 259.05 154.79 255.38 162.87 180.15 3.96"></polygon><polygon class="cls-1" points="31.59 3.96 75.74 3.96 167.02 197.29 144.41 244.68 31.59 3.96"></polygon><polygon points="85.68 3.96 92.86 3.96 175.92 178.62 172.17 186.66 85.68 3.96"></polygon><polygon class="cls-1" points="102.69 3.96 170 3.96 250.8 173.75 217.93 244.68 102.69 3.96"></polygon><polygon class="cls-1" points="247.69 3.96 329.74 3.96 264.81 142.49 222.87 58.33 247.69 3.96"></polygon></svg> 